# xmcd
#
# Track frame offsets:
#       150
#       66783
#       128706
#       194801
#
# Disc length: 4162 seconds
#
# Revision: 0
# Processed by: cddbd v1.5PL3 Copyright (c) Steve Scherf et al.
# Submitted via: WaveLab 4.01
#
DISCID=39104004
DTITLE=Waschlabor  - 1. Waschgang CD2/2
DYEAR=2003
DGENRE=Techno
TTITLE0=Titel 01 Speequell
TTITLE1=Titel 02 Naschpulver
TTITLE2=Titel 03 Trommel-Wirbel
TTITLE3=Titel 04 DeConstructa
EXTD=
EXTT0=
EXTT1=
EXTT2=
EXTT3=
PLAYORDER=
